<svg width="12" height="10" viewBox="0 0 12 10" fill="none" xmlns="http://www.w3.org/2000/svg">
<path d="M11.2071 1.56709C10.7881 1.75332 10.3458 1.86971 9.88023 1.93955C10.3458 1.6602 10.7183 1.2179 10.8812 0.682484C10.4389 0.938554 9.95006 1.12479 9.41465 1.24118C8.99562 0.798879 8.39037 0.519531 7.73856 0.519531C6.48149 0.519531 5.45721 1.54381 5.45721 2.80087C5.45721 2.98711 5.48049 3.15006 5.52705 3.31301C3.64145 3.2199 1.94208 2.31202 0.801411 0.915275C0.615178 1.26446 0.498783 1.63692 0.498783 2.05595C0.498783 2.84743 0.894527 3.5458 1.52306 3.96483C1.1506 3.94155 0.801411 3.84843 0.475504 3.68548V3.70876C0.475504 4.82615 1.26699 5.75731 2.31455 5.96682C2.12831 6.01338 1.9188 6.03666 1.70929 6.03666C1.56962 6.03666 1.40666 6.01338 1.26699 5.9901C1.56962 6.89798 2.40766 7.57307 3.40866 7.57307C2.61717 8.17833 1.63945 8.55079 0.56862 8.55079C0.382388 8.55079 0.196156 8.55079 0.0332031 8.52751C1.05748 9.17933 2.24471 9.55179 3.54833 9.55179C7.76184 9.55179 10.0665 6.05994 10.0665 3.03366C10.0665 2.94055 10.0665 2.82415 10.0665 2.73104C10.5088 2.42841 10.9045 2.03267 11.2071 1.56709Z" fill="black"/>
</svg>
