<svg width="14" height="14" viewBox="0 0 14 14" fill="none" xmlns="http://www.w3.org/2000/svg">
<path fill-rule="evenodd" clip-rule="evenodd" d="M6.60685 0.810547C3.01591 0.810547 0.126953 3.6995 0.126953 7.29044C0.126953 10.1524 1.98992 12.5824 4.55488 13.4463C4.87888 13.5003 4.98688 13.3113 4.98688 13.1223C4.98688 12.9604 4.98688 12.5554 4.98688 12.0154C3.1779 12.4204 2.79991 11.1514 2.79991 11.1514C2.50291 10.3954 2.07092 10.2064 2.07092 10.2064C1.47693 9.8014 2.12492 9.8014 2.12492 9.8014C2.77291 9.8554 3.1239 10.4764 3.1239 10.4764C3.6909 11.4754 4.63588 11.1784 5.01387 11.0164C5.06787 10.5844 5.22987 10.3144 5.41887 10.1524C3.98789 9.9904 2.47592 9.42341 2.47592 6.93945C2.47592 6.23746 2.71891 5.64347 3.1509 5.21148C3.09691 5.04948 2.85391 4.40149 3.2049 3.4835C3.2049 3.4835 3.74489 3.32151 4.98688 4.15849C5.49987 4.0235 6.06686 3.9425 6.60685 3.9425C7.14684 3.9425 7.71383 4.0235 8.22682 4.15849C9.4688 3.32151 10.0088 3.4835 10.0088 3.4835C10.3598 4.37449 10.1438 5.02248 10.0628 5.21148C10.4678 5.67047 10.7378 6.23746 10.7378 6.93945C10.7378 9.42341 9.22581 9.9634 7.76783 10.1254C8.01083 10.3144 8.19982 10.7194 8.19982 11.3134C8.19982 12.1774 8.19982 12.8794 8.19982 13.0953C8.19982 13.2573 8.30782 13.4733 8.65882 13.4193C11.2238 12.5824 13.0867 10.1524 13.0867 7.29044C13.0867 3.6995 10.1978 0.810547 6.60685 0.810547Z" fill="black"/>
</svg>
