<svg width="14" height="15" viewBox="0 0 14 15" fill="none" xmlns="http://www.w3.org/2000/svg">
<path d="M7.00076 2.03119C8.80947 2.03119 9.02366 2.03797 9.73818 2.07055C10.1678 2.0758 10.5933 2.15469 10.9962 2.30377C11.2884 2.41646 11.5538 2.58909 11.7753 2.81055C11.9967 3.032 12.1694 3.29737 12.282 3.58958C12.4311 3.99252 12.51 4.41804 12.5153 4.84764C12.5475 5.56216 12.5546 5.77635 12.5546 7.58506C12.5546 9.39377 12.5479 9.60797 12.5153 10.3225C12.51 10.7521 12.4311 11.1776 12.282 11.5805C12.1694 11.8728 11.9967 12.1381 11.7753 12.3596C11.5538 12.581 11.2884 12.7537 10.9962 12.8664C10.5933 13.0154 10.1678 13.0943 9.73818 13.0996C9.02398 13.1318 8.80979 13.1389 7.00076 13.1389C5.19172 13.1389 4.97753 13.1322 4.26334 13.0996C3.83373 13.0943 3.40821 13.0154 3.00527 12.8664C2.71307 12.7537 2.44769 12.581 2.22624 12.3596C2.00479 12.1381 1.83216 11.8728 1.71947 11.5805C1.57038 11.1776 1.4915 10.7521 1.48624 10.3225C1.45398 9.60797 1.44689 9.39377 1.44689 7.58506C1.44689 5.77635 1.45366 5.56216 1.48624 4.84764C1.4915 4.41804 1.57038 3.99252 1.71947 3.58958C1.83216 3.29737 2.00479 3.032 2.22624 2.81055C2.44769 2.58909 2.71307 2.41646 3.00527 2.30377C3.40821 2.15469 3.83373 2.0758 4.26334 2.07055C4.97785 2.03829 5.19205 2.03119 7.00076 2.03119ZM7.00076 0.810547C5.16205 0.810547 4.93043 0.818289 4.20785 0.851192C3.64561 0.862375 3.08934 0.968831 2.56269 1.16603C2.11092 1.33625 1.70172 1.60299 1.36366 1.94764C1.01869 2.28583 0.751722 2.69526 0.581401 3.14732C0.384201 3.67396 0.277746 4.23024 0.266563 4.79248C0.234304 5.51442 0.226562 5.74603 0.226562 7.58474C0.226562 9.42345 0.234304 9.65506 0.267208 10.3776C0.278391 10.9399 0.384847 11.4962 0.582046 12.0228C0.752178 12.4748 1.01892 12.8842 1.36366 13.2225C1.70191 13.5672 2.11133 13.834 2.56334 14.0041C3.08998 14.2013 3.64626 14.3077 4.2085 14.3189C4.93108 14.3512 5.16172 14.3596 7.0014 14.3596C8.84108 14.3596 9.07172 14.3518 9.7943 14.3189C10.3565 14.3077 10.9128 14.2013 11.4395 14.0041C11.8893 13.8297 12.2978 13.5634 12.6389 13.2221C12.98 12.8808 13.246 12.4721 13.4201 12.0222C13.6173 11.4955 13.7238 10.9392 13.735 10.377C13.7672 9.65506 13.775 9.42345 13.775 7.58474C13.775 5.74603 13.7672 5.51442 13.7343 4.79184C13.7231 4.22959 13.6167 3.67332 13.4195 3.14668C13.2493 2.69467 12.9826 2.28525 12.6379 1.947C12.2996 1.60226 11.8902 1.33552 11.4382 1.16539C10.9115 0.968186 10.3553 0.86173 9.79301 0.850547C9.07108 0.818289 8.83947 0.810547 7.00076 0.810547Z" fill="black"/>
<path d="M7.00215 4.10742C6.31413 4.10742 5.64155 4.31144 5.06948 4.69369C4.49741 5.07594 4.05154 5.61924 3.78824 6.25489C3.52494 6.89054 3.45605 7.58999 3.59028 8.26479C3.72451 8.9396 4.05582 9.55944 4.54233 10.0459C5.02884 10.5325 5.64868 10.8638 6.32349 10.998C6.99829 11.1322 7.69774 11.0633 8.33339 10.8C8.96904 10.5367 9.51234 10.0909 9.89459 9.5188C10.2768 8.94673 10.4809 8.27416 10.4809 7.58613C10.4809 6.66352 10.1144 5.7787 9.46197 5.12631C8.80958 4.47393 7.92476 4.10742 7.00215 4.10742ZM7.00215 9.8442C6.55555 9.8442 6.11897 9.71176 5.74764 9.46364C5.3763 9.21552 5.08688 8.86286 4.91597 8.45025C4.74506 8.03765 4.70034 7.58363 4.78747 7.1456C4.8746 6.70758 5.08966 6.30523 5.40546 5.98944C5.72125 5.67364 6.1236 5.45858 6.56162 5.37145C6.99964 5.28433 7.45367 5.32904 7.86627 5.49995C8.27888 5.67086 8.63154 5.96028 8.87966 6.33162C9.12778 6.70295 9.26021 7.13953 9.26021 7.58613C9.26021 8.18501 9.02231 8.75935 8.59884 9.18282C8.17537 9.60629 7.60102 9.8442 7.00215 9.8442Z" fill="black"/>
<path d="M10.6176 4.78206C11.0665 4.78206 11.4305 4.41811 11.4305 3.96915C11.4305 3.5202 11.0665 3.15625 10.6176 3.15625C10.1686 3.15625 9.80469 3.5202 9.80469 3.96915C9.80469 4.41811 10.1686 4.78206 10.6176 4.78206Z" fill="black"/>
</svg>
